<svg fill="none" height="20" viewBox="0 0 20 20" width="20" xmlns="http://www.w3.org/2000/svg"><path d="m15.4996 7.00003c1.3255 0 2.41 1.03154 2.4947 2.33563l.0053.16437v5.99967c0 1.3255-1.0315 2.41-2.3356 2.4947l-.1644.0053h-5.99969c-1.32548 0-2.41004-1.0315-2.49468-2.3356l-.00532-.1644v-5.99967c0-1.32548 1.03154-2.41004 2.33563-2.49468l.16437-.00532zm0 1h-5.99969c-.7797 0-1.42045.59489-1.49313 1.35554l-.00687.14446v5.99967c0 .7797.59489 1.4205 1.35554 1.4931l.14446.0069h5.99969c.7797 0 1.4204-.5949 1.4931-1.3555l.0069-.1445v-5.99967c0-.77969-.5949-1.42045-1.3556-1.49313zm-2.9999 1c.2455 0 .4497.17688.492.41013l.008.08987-.0009 2.49987 2.5011.0001c.2762 0 .5.2239.5.5 0 .2455-.1769.4496-.4101.492l-.0899.008-2.5011-.0001.0009 2.5001c0 .2762-.2238.5-.5.5-.2454 0-.4496-.1768-.4919-.4101l-.0081-.0899-.0009-2.5001-2.49889.0001c-.27614 0-.5-.2238-.5-.5 0-.2454.17688-.4496.41013-.4919l.08987-.0081 2.49889-.0001.0009-2.49987c0-.27614.2239-.5.5-.5zm.1621-5.30495.0477.15739.5753 2.14743h-1.036l-.5053-1.88861c-.2018-.75313-.9422-1.21808-1.6958-1.09141l-.14129.03075-5.79524 1.55283c-.75313.2018-1.21808.94226-1.09142 1.69581l.03076.14131 1.55283 5.79522c.17493.6529.75462 1.0892 1.39673 1.1113l.00012 1.0006c-1.02696-.0209-1.9642-.6782-2.3106-1.6825l-.05217-.1706-1.55283-5.7952c-.34307-1.28032.37262-2.5949 1.61036-3.01418l.1574-.04768 5.79524-1.55283c1.22701-.32877 2.48541.31482 2.95721 1.45841z" fill="#212121"/></svg>